<svg width="487" height="183" viewBox="0 0 487 183" fill="none" xmlns="http://www.w3.org/2000/svg">
<path d="M109.14 175.6C109.14 177.867 102.407 179 88.9398 179C75.4728 179 68.7398 177.867 68.7398 175.6V129.6H40.7398V175.6C40.7398 177.867 34.0069 179 20.5399 179C7.07286 179 0.339844 177.867 0.339844 175.6V43C0.339844 40.2 7.07286 38.8 20.5399 38.8C34.0069 38.8 40.7398 40.2 40.7398 43V90H68.7398V43.4C68.7398 41.5333 72.0728 40.2 78.7398 39.4C82.2068 39.1333 85.6068 39 88.9398 39L99.1399 39.4C105.807 40.2 109.14 41.5333 109.14 43.4V175.6ZM223.051 179.4C211.451 179.4 205.184 177.533 204.251 173.8L197.651 148H165.851L160.051 172.8C159.251 176.933 152.851 179 140.851 179C134.451 179 129.717 178.667 126.651 178C123.584 177.2 122.051 176.6 122.051 176.2L157.451 40.8C157.451 39.7333 166.584 39.2 184.851 39.2C203.117 39.2 212.251 39.7333 212.251 40.8L246.851 176.4C246.851 177.333 243.784 178.067 237.651 178.6C231.517 179.133 226.651 179.4 223.051 179.4ZM170.851 122.6H191.851L182.851 81.2H181.651L170.851 122.6ZM298.286 126.5C298.289 112.3 298.286 128.633 298.286 126.5C298.286 128.5 298.305 117.9 298.286 126.5L298.305 114.5V52.5C298.305 47.8333 298.305 44.3 298.305 39H305.705C340.772 39 358.305 52.667 358.305 80C358.305 88.267 356.705 95.8001 353.505 102.6C350.305 109.267 345.772 114.6 339.905 118.6L365.105 160.6C364.039 163.8 360.572 167.467 354.705 171.6C346.705 177.333 340.105 180.2 334.905 180.2C329.705 180.2 325.839 178.333 323.305 174.6L304.505 130.8H298.305L298.286 126.5ZM298.305 74.4V104.4H299.305C311.972 104.4 318.305 99.1331 318.305 88.6001C318.305 83.8001 317.039 80.267 314.505 78C312.105 75.6 308.105 74.4 302.505 74.4H298.305ZM443.474 43C443.474 40.3333 450.674 39 465.074 39C479.608 39 486.874 40.3333 486.874 43V134.8C486.874 148.4 482.008 159.533 472.274 168.2C462.541 176.733 449.074 181 431.874 181C414.808 181 400.874 176.6 390.074 167.8C379.408 158.867 374.074 146.867 374.074 131.8V43.2C374.074 40.5333 381.274 39.2 395.674 39.2C410.208 39.2 417.474 40.5333 417.474 43.2V133.4C417.474 136.067 418.874 138.2 421.674 139.8C424.608 141.4 427.674 142.2 430.874 142.2C434.074 142.2 436.941 141.467 439.474 140C442.141 138.533 443.474 136.333 443.474 133.4V43Z" fill="#467750"/>
<path d="M273.398 182.699H285.087C288.004 182.699 290.753 181.564 292.828 179.503C294.903 177.441 296.045 174.709 296.045 171.81V37.9238C296.045 37.8511 296.042 37.7789 296.034 37.7067C296.029 37.6479 296.018 37.5904 296.008 37.5331C296.006 37.5206 296.005 37.5076 296.003 37.4954C295.973 37.3463 295.927 37.2029 295.869 37.0668L281.265 2.24232C280.925 1.43092 280.127 0.902422 279.242 0.902222C278.649 0.902222 278.095 1.13952 277.692 1.54042C277.493 1.73772 277.331 1.97482 277.219 2.24232L262.615 37.067C262.584 37.1388 262.557 37.2125 262.534 37.2882C262.513 37.3587 262.496 37.4264 262.482 37.495C262.479 37.5101 262.478 37.5257 262.475 37.5404C262.465 37.5953 262.456 37.6501 262.45 37.7063C262.443 37.7783 262.439 37.8509 262.439 37.9234V171.811C262.439 177.815 267.355 182.699 273.398 182.699ZM274.615 19.7758H283.869L290.566 35.7459H267.919L274.615 19.7758ZM277.051 40.1016V119.545C277.051 120.748 278.032 121.723 279.242 121.723C280.453 121.723 281.434 120.748 281.434 119.545V40.1014H291.662V143.5H281.434V128.256C281.434 127.053 280.453 126.078 279.243 126.078C278.637 126.078 278.089 126.322 277.693 126.716C277.296 127.11 277.051 127.655 277.051 128.256V143.5H266.823V40.1016H277.051ZM291.662 147.855V155.115H266.823V147.855H291.662ZM282.043 15.4207H276.442L279.243 8.74223L282.043 15.4207ZM266.823 159.47H291.662V171.811C291.662 173.546 290.976 175.184 289.729 176.423C288.482 177.662 286.833 178.344 285.087 178.344H273.398C269.773 178.344 266.823 175.413 266.823 171.811V159.47Z" fill="#467750"/>
</svg>
